HIERARCHY
ROOT Hips
{
  OFFSET -31.5692 30.0904 122.763
  CHANNELS 6 Xposition Yposition Zposition Zrotation Xrotation Yrotation
  JOINT LeftUpLeg
  {
    OFFSET 8.64259 1.95398 -2.38835
    CHANNELS 3 Zrotation Xrotation Yrotation
    JOINT LeftLeg
    {
      OFFSET 43.7702 0 0
      CHANNELS 3 Zrotation Xrotation Yrotation
      JOINT LeftFoot
      {
        OFFSET 40.6238 0 0
        CHANNELS 3 Zrotation Xrotation Yrotation
        JOINT LeftToeBase
        {
          OFFSET 12.7242 0 0
          CHANNELS 3 Zrotation Xrotation Yrotation
          End Site
          {
            OFFSET 0 0 0
          }
        }
      }
    }
  }
  JOINT RightUpLeg
  {
    OFFSET -8.2249 1.95398 -2.59336
    CHANNELS 3 Zrotation Xrotation Yrotation
    JOINT RightLeg
    {
      OFFSET 43.5653 0 0
      CHANNELS 3 Zrotation Xrotation Yrotation
      JOINT RightFoot
      {
        OFFSET 40.6238 0 0
        CHANNELS 3 Zrotation Xrotation Yrotation
        JOINT RightToeBase
        {
          OFFSET 12.7242 0 0
          CHANNELS 3 Zrotation Xrotation Yrotation
          End Site
          {
            OFFSET 0 0 0
          }
        }
      }
    }
  }
  JOINT Spine
  {
    OFFSET 0.165834 0.87714 6.61349
    CHANNELS 3 Zrotation Xrotation Yrotation
    JOINT Spine1
    {
      OFFSET 7.38963 1.71661e-005 0
      CHANNELS 3 Zrotation Xrotation Yrotation
      JOINT Spine2
      {
        OFFSET 11.9445 1.14441e-005 0
        CHANNELS 3 Zrotation Xrotation Yrotation
        JOINT Spine3
        {
          OFFSET 14.7254 4.19617e-005 0
          CHANNELS 3 Zrotation Xrotation Yrotation
          JOINT Spine4
          {
            OFFSET 10.9679 0 0
            CHANNELS 3 Zrotation Xrotation Yrotation
            JOINT RightShoulder
            {
              OFFSET 2.46616 -1.6653 3.69651
              CHANNELS 3 Zrotation Xrotation Yrotation
              JOINT RightArm
              {
                OFFSET 13.0012 0 0
                CHANNELS 3 Zrotation Xrotation Yrotation
                JOINT RightForeArm
                {
                  OFFSET 28.7848 1.62311e-005 0
                  CHANNELS 3 Zrotation Xrotation Yrotation
                  JOINT RightHand
                  {
                    OFFSET 26.5688 1.62095e-005 0
                    CHANNELS 3 Zrotation Xrotation Yrotation
                    End Site
                    {
                      OFFSET 0 0 0
                    }
                  }
                }
              }
            }
            JOINT LeftShoulder
            {
              OFFSET 2.38034 -1.29275 -3.7523
              CHANNELS 3 Zrotation Xrotation Yrotation
              JOINT LeftArm
              {
                OFFSET 16.3182 6.07031e-005 0
                CHANNELS 3 Zrotation Xrotation Yrotation
                JOINT LeftForeArm
                {
                  OFFSET 27.0901 0 0
                  CHANNELS 3 Zrotation Xrotation Yrotation
                  JOINT LeftHand
                  {
                    OFFSET 24.5451 1.51738e-005 0
                    CHANNELS 3 Zrotation Xrotation Yrotation
                    End Site
                    {
                      OFFSET 0 0 0
                    }
                  }
                }
              }
            }
            JOINT Neck
            {
              OFFSET 5.0226 -0.0266342 0
              CHANNELS 3 Zrotation Xrotation Yrotation
              JOINT Head
              {
                OFFSET 6.69364 2.86102e-005 0
                CHANNELS 3 Zrotation Xrotation Yrotation
                End Site
                {
                  OFFSET 0 0 0
                }
              }
            }
          }
        }
      }
    }
  }
}
MOTION
Frames:	18
Frame Time:	0.0416667
232.002 103.943 -235.301 -98.8654 -50.4373 -97.6467 -174.918 -2.88371 87.6517 -10.6624 8.20651 1.21337 70.1574 5.40925 -3.46473 14.9261 -9.73178 5.69523 171.679 -5.88245 89.1513 -8.6824 -6.53317 0.219132 66.8888 -4.76097 -0.750283 24.0393 1.12266 4.41937 0.497146 7.5831 -90.0371 11.7088 0.971484 -0.175792 0.0381955 0.962822 -0.218391 -22.4999 0.979393 0.124341 -2.48721 0.979409 0.124329 89.3849 -30.9345 -107.607 39.8681 -7.31202 -7.47781 6.96607 -27.8262 -11.7058 -21.8526 -0.375419 -8.37267 -88.8701 -50.9684 80.6069 -26.8439 11.4936 -15.1198 -5.0731 1.84803 -0.00674094 -0.536918 -0.213608 -22.6066 7.07059 3.86099 -1.99477 -10.2091 4.12757 1.19241 
232.018 103.957 -235.363 -98.5171 -50.3848 -97.2264 -174.771 -2.47282 87.9151 -10.9826 8.64515 1.10997 70.1059 5.34292 -3.52449 15.0782 -9.61951 5.65534 171.852 -5.55098 89.3714 -8.90199 -6.00536 0.258448 66.863 -4.5938 -0.238319 24.0656 1.19733 4.07061 0.474984 7.51245 -90.0536 11.8501 0.919454 -0.205066 0.179483 0.90952 -0.245335 -22.3583 0.938559 0.0807718 -2.34564 0.938559 0.0807679 89.1897 -30.9058 -107.999 39.9718 -6.47803 -7.01302 5.90742 -26.7384 -12.6075 -22.6724 -0.572148 -6.84236 -88.7212 -50.952 80.8245 -26.8846 11.8983 -14.4428 -5.43311 0.955976 -0.00673837 0.330496 -0.337317 -22.3652 5.47288 4.40637 -2.09352 -8.07848 4.7007 0.733503 
231.918 103.896 -235.374 -98.8159 -50.4126 -97.3963 -174.79 -2.10774 88.0276 -12.3362 12.7189 1.28121 69.3907 5.44364 -0.190144 17.1515 -9.10666 7.06281 171.927 -6.3128 89.5236 -7.94457 -6.27263 0.231845 66.8282 -4.96025 -0.842788 23.6578 1.29505 4.38241 0.470999 7.52701 -90.0482 11.8209 0.914028 -0.19337 0.150268 0.904623 -0.233415 -22.3875 0.92987 0.0902983 -2.37481 0.929896 0.0903013 89.36 -31.3638 -107.489 39.8916 -6.84865 -7.13951 6.48296 -27.4301 -12.0072 -22.4846 -0.451551 -7.74547 -88.6628 -50.9826 80.9169 -26.7576 11.8773 -14.5201 -5.25363 1.04297 -0.00673855 0.982506 -0.386793 -19.5603 5.57146 4.20788 -2.35747 -8.25023 4.55182 0.810548 
231.968 103.923 -235.413 -98.7775 -50.3098 -97.6127 -174.992 -2.34621 87.7074 -11.7973 11.9581 1.34046 69.2851 5.39238 -0.579083 16.7723 -9.13406 6.6674 171.697 -5.73121 89.1963 -8.80764 -6.48099 0.268039 66.9684 -4.8082 -0.719966 23.9243 1.21085 4.26214 0.472714 7.53716 -90.0391 11.8006 0.921909 -0.175783 0.129959 0.913272 -0.216185 -22.4078 0.932086 0.109431 -2.39516 0.932111 0.109445 89.53 -31.2918 -107.187 39.7963 -6.73764 -7.21854 6.0998 -28.0961 -12.4674 -21.4283 -0.507371 -7.61487 -88.7064 -51.2407 80.901 -26.7577 11.832 -14.5069 -5.35982 1.52306 -0.00673982 -1.84612 -0.00838168 -20.6382 6.03138 4.31008 -2.01155 -8.55019 4.59724 0.666472 
231.827 103.909 -235.47 -99.0094 -50.2681 -97.6131 -174.613 -2.42224 88.1147 -11.9532 13.0198 1.10195 69.1994 5.52643 0.300564 17.2299 -8.98848 6.9208 171.899 -6.32504 89.4946 -8.14331 -6.6696 0.205833 66.8036 -4.92167 -1.1333 23.7259 1.20731 4.61581 0.476809 7.54743 -90.0517 11.7802 0.924027 -0.20096 0.10951 0.914291 -0.241442 -22.4283 0.941692 0.0860641 -2.41563 0.941693 0.0860612 89.6699 -30.9831 -107.033 40.3041 -7.17878 -7.15624 6.61712 -27.4013 -12.073 -23.5321 -0.559248 -7.04033 -88.58 -51.0743 81.0568 -26.9847 11.8796 -14.5595 -5.08907 1.02155 -0.00673851 -0.734282 -0.185471 -20.1861 6.08982 4.20482 -2.19503 -8.90555 4.51876 0.871634 
231.837 103.922 -235.534 -99.0865 -50.3045 -97.7653 -174.639 -2.50805 88.1261 -11.6848 12.4436 1.10393 68.9638 5.14841 -1.16487 18.1292 -8.77795 7.58599 171.784 -6.24101 89.3859 -8.29669 -6.33268 0.27951 66.8804 -4.93137 -0.790513 23.8321 1.21679 4.39577 0.472257 7.55978 -90.0673 11.7555 0.907688 -0.229924 0.0848639 0.896697 -0.269665 -22.4528 0.934823 0.0535265 -2.44018 0.934823 0.0535206 89.9063 -30.7048 -106.676 40.4519 -7.31857 -7.2684 6.72734 -27.4747 -11.969 -23.3367 -0.518941 -7.2988 -88.7183 -51.5752 80.9464 -26.5329 12.0574 -14.5919 -5.18167 0.830966 -0.00673815 0.324523 -0.339723 -21.2655 6.18051 4.26756 -1.71389 -8.76954 4.50209 0.59747 
231.856 103.931 -235.599 -98.9383 -50.172 -97.824 -174.738 -2.5103 87.894 -11.5226 12.5703 1.08259 68.8349 5.2548 -0.401874 17.7815 -8.74195 7.09253 171.595 -5.8971 89.1414 -8.61328 -6.92371 0.318939 66.8484 -4.85687 -0.946478 24.1064 1.09676 4.40694 0.493199 7.562 -90.0525 11.7511 0.956285 -0.205501 0.0805082 0.946308 -0.247392 -22.4575 0.97383 0.0914339 -2.44482 0.973826 0.0914314 89.9097 -30.7037 -106.67 40.3954 -7.00669 -7.31822 6.22594 -27.7663 -12.482 -22.8284 -0.543495 -7.23731 -88.6849 -51.3806 80.9592 -26.8966 11.705 -14.7045 -4.19105 1.27108 -0.00673909 0.88926 -0.355109 -18.7466 6.27053 4.29635 -1.69835 -8.54084 4.53116 0.555411 
231.771 103.908 -235.713 -98.7246 -50.0839 -97.724 -174.718 -2.32027 87.9157 -11.6152 12.4889 1.04018 68.9755 5.2996 -0.498144 17.4786 -8.98376 7.2113 171.785 -5.53894 89.256 -9.03449 -6.65915 0.193251 67.1777 -4.91907 -0.670712 23.6289 1.32131 4.32624 0.488411 7.53986 -90.0299 11.7952 0.957381 -0.161073 0.124586 0.949377 -0.203064 -22.4134 0.96153 0.134132 -2.40073 0.961528 0.134136 89.5446 -31.2313 -107.182 40.0985 -6.66821 -7.02881 5.92281 -26.9477 -12.7452 -21.5854 -0.441212 -7.76767 -88.5612 -51.444 81.1534 -26.916 11.3735 -14.4632 -4.53146 1.60513 -0.00674008 3.37255 -0.571553 -16.7836 6.10657 4.48815 -1.65095 -8.32134 4.70451 0.680831 
231.667 103.938 -235.766 -99.2014 -50.1608 -97.9469 -174.723 -2.57862 88.0705 -11.8437 12.1608 1.24884 69.3739 5.56298 -0.430613 16.5001 -9.16825 6.41286 171.819 -6.09727 89.4593 -8.90377 -6.57973 0.263371 67.3323 -5.1038 -0.882212 23.4674 1.52144 3.80927 0.487742 7.59785 -90.0613 11.6794 0.941499 -0.220558 0.00879478 0.930851 -0.261784 -22.5291 0.964238 0.0726315 -2.51646 0.96421 0.0726044 89.6156 -31.0051 -107.13 40.3004 -6.54322 -7.12832 5.77993 -27.122 -12.6712 -21.9723 -0.443029 -7.76258 -88.4846 -51.3407 81.2474 -27.3666 11.1651 -14.8719 -4.62235 2.61794 -0.00674448 -1.3229 -0.0282118 -20.1448 6.47088 4.38219 -1.54383 -8.55358 4.58615 0.575207 
231.527 103.947 -235.833 -99.3134 -50.1137 -98.0375 -174.467 -2.76291 88.325 -11.601 12.604 1.04064 69.1397 5.48834 -0.530892 17.222 -8.93741 6.80846 171.835 -5.94799 89.5333 -9.21076 -6.51159 0.276531 67.399 -5.20069 -0.825834 23.3958 1.45996 4.17289 0.49444 7.59421 -90.0604 11.6845 0.955168 -0.220269 0.0138508 0.944529 -0.262103 -22.5241 0.977197 0.0770111 -2.51148 0.977218 0.0770097 89.6244 -30.9861 -107.12 40.3302 -6.65013 -7.14787 6.04826 -25.7173 -12.4462 -22.1856 -0.20528 -8.87834 -88.6256 -51.685 81.1031 -26.4297 11.6436 -14.9017 -4.85901 1.49556 -0.00673973 -0.0711614 -0.231901 -19.482 5.96639 4.29955 -1.69532 -8.25958 4.52343 0.761463 
231.325 103.9 -235.882 -99.3215 -50.5185 -98.1333 -174.113 -2.54804 88.6355 -11.9163 13.3553 0.707641 69.3496 5.61789 -0.568398 17.1261 -9.03926 6.89863 171.693 -6.15185 89.5318 -9.01505 -6.34715 0.493845 67.4929 -5.4666 -1.07048 23.36 1.44632 4.28736 0.442677 7.58949 -90.0763 11.6894 0.844731 -0.240624 0.0186579 0.833315 -0.277571 -22.5187 0.877981 0.0243981 -2.50606 0.877991 0.024395 89.7353 -30.8956 -106.939 40.3479 -6.60475 -7.32347 5.95345 -27.5845 -12.3642 -21.8354 -0.530176 -7.33835 -88.6896 -52.2323 81.1109 -25.7606 11.8136 -15.0809 -5.20958 0.878405 -0.00673823 0.0669646 -0.275823 -19.839 5.82453 4.32841 -1.23189 -8.09358 4.46649 0.694011 
231.042 103.851 -235.963 -99.5481 -50.4314 -98.1548 -173.834 -2.45576 89.0655 -12.539 13.4109 0.647118 69.6477 5.70209 -0.776478 17.4622 -8.74662 6.71086 171.808 -6.17607 89.8643 -9.39627 -6.59497 0.544592 67.45 -5.72602 -1.69183 23.9679 1.18404 4.29439 0.494987 7.59391 -90.0902 11.6877 0.942234 -0.27844 0.0170774 0.929065 -0.319648 -22.5208 0.982335 0.0176335 -2.50817 0.982354 0.0176348 90.0943 -31.1596 -106.139 40.3116 -6.57691 -7.32463 5.92068 -27.7279 -12.4244 -21.7882 -0.56746 -7.13088 -89.0872 -51.9082 80.4672 -25.81 11.7188 -15.0367 -5.38056 0.433345 -0.00673763 -0.912983 -0.178714 -21.4528 5.61643 4.05799 -1.74152 -7.90918 4.26706 1.43629 
230.522 103.847 -236.05 -100.073 -50.6841 -98.6129 -173.659 -2.84356 89.4164 -12.5936 13.8541 0.693148 69.7078 5.74873 -1.05897 18.1176 -8.85928 7.73896 171.809 -6.77546 90.0271 -9.30567 -6.22956 0.636812 67.6824 -5.83347 -1.55363 23.8486 1.32412 3.93747 0.454222 7.64912 -90.0888 11.5769 0.862047 -0.265813 -0.0938084 0.849512 -0.303504 -22.6313 0.902085 0.00558565 -2.61861 0.902066 0.00556644 89.9264 -31.17 -106.462 40.2873 -6.54611 -7.36932 5.96749 -25.856 -12.3336 -21.9154 -0.27816 -8.50864 -88.8059 -52.2523 80.9446 -24.8741 11.7733 -15.2631 -5.16912 0.873278 -0.00673822 -0.0609886 -0.258913 -19.8846 6.19522 4.41121 -1.08386 -8.23979 4.51588 0.79387 
230.145 103.801 -236.21 -99.6742 -51.0696 -98.7673 -173.571 -2.84803 89.3549 -12.0112 14.6613 0.433483 69.3327 5.80622 -0.331049 18.1933 -8.30196 6.68697 171.791 -5.86428 89.9729 -10.8391 -5.63171 0.604932 68.6914 -6.2554 -1.39172 23.5181 1.54019 3.64838 0.422569 7.61456 -90.0359 11.6455 0.823766 -0.1572 -0.0251583 0.816056 -0.193305 -22.5624 0.832918 0.0976602 -2.54976 0.832923 0.0976678 90.0196 -31.084 -106.312 40.6965 -6.42908 -7.05348 5.71973 -27.7291 -12.5424 -22.2978 -0.594199 -6.94095 -88.8641 -52.3327 80.8745 -24.6255 11.2711 -14.8789 -4.99778 0.275155 -0.00673751 3.65252 -0.699108 -18.2315 6.3962 4.43616 -0.946417 -8.13843 4.51358 0.823986 
229.319 103.668 -236.506 -99.199 -51.3142 -98.4619 -173.421 -2.25468 89.8199 -12.9059 14.5617 0.501435 70.107 6.07984 -0.72859 18.0723 -8.30857 6.55228 172.213 -5.51895 90.6237 -11.3651 -5.81693 0.652677 68.8811 -6.81738 -2.58242 23.9759 1.35123 3.60764 0.508126 7.66722 -90.027 11.5409 0.998312 -0.15521 -0.129638 0.990518 -0.199005 -22.6679 0.998805 0.152029 -2.65521 0.9988 0.152032 90.2911 -31.357 -105.687 40.3173 -6.78144 -7.34867 6.1271 -27.2669 -12.3593 -22.8107 -0.552451 -7.07999 -89.4899 -52.4671 79.9848 -23.4427 10.6304 -15.2064 -4.068 0.461742 -0.00673766 1.43428 -0.413074 -18.3037 6.95871 4.06734 -0.539672 -7.51833 4.09419 0.397061 
228.504 103.502 -236.8 -98.6518 -52.2089 -98.553 -173.752 -1.51778 89.7716 -13.548 14.7787 0.813832 70.1196 6.06019 -1.70284 19.6576 -7.62367 7.075 172.097 -4.61517 90.7339 -12.7247 -5.15584 0.920479 69.69 -7.27778 -2.94313 24.363 1.16769 3.66865 0.45916 7.67193 -89.9488 11.53 0.937486 0.00555162 -0.14061 0.936813 -0.0357121 -22.6783 0.892477 0.28708 -2.6656 0.892471 0.287074 90.3765 -30.8874 -105.689 40.9122 -6.92162 -7.19737 6.62373 -26.2691 -11.5317 -23.1202 -0.319375 -8.2224 -88.8159 -52.2262 80.924 -22.2795 9.55469 -14.2298 -4.05256 1.54433 -0.00673988 1.98603 -0.496647 -18.6324 7.52146 4.15716 0.112166 -6.92498 4.08097 -0.806169 
227.553 103.215 -237.165 -98.0064 -53.1351 -99.1305 -174.188 -0.576675 89.2481 -14.6393 15.3493 0.845056 70.4404 6.78194 -1.85372 21.3739 -7.44923 8.92815 171.733 -2.89898 90.2995 -15.7525 -4.27728 1.05794 71.6797 -7.89957 -2.52125 23.78 1.48823 3.40137 0.465868 7.73504 -89.7828 11.4025 1.02839 0.328911 -0.268029 1.04187 0.283331 -22.8054 0.881984 0.622804 -2.79275 0.881981 0.622789 89.5886 -30.4082 -107.413 41.134 -6.43587 -5.9855 5.91464 -26.4773 -12.4782 -22.9433 -0.621139 -6.49065 -88.0469 -52.757 82.1422 -18.8773 7.92737 -13.5136 -3.35223 2.66956 -0.00372265 1.75274 -0.481426 -19.4909 8.68333 3.87865 0.995689 -6.72855 3.66584 -2.82376 
226.692 102.543 -237.726 -96.6638 -53.9841 -98.5757 -174.834 4.12202 88.4119 -21.8932 14.1561 0.887467 71.1204 7.75139 -2.20777 24.6436 -6.22903 10.7146 171.524 -0.315974 90.3422 -19.9746 -3.81039 1.51074 74.1816 -8.3016 -2.66026 23.586 1.47178 3.80128 0.678466 7.76817 -89.6648 11.3342 1.50638 0.516822 -0.335967 1.52766 0.450001 -22.8757 1.28142 0.945708 -2.86305 1.2814 0.945697 89.5242 -29.7027 -107.818 41.3148 -6.34299 -5.08295 6.17576 -26.6488 -12.0748 -22.7603 -0.430481 -7.68223 -87.3398 -52.0728 83.0611 -16.5076 6.408 -12.0579 -2.75676 2.50787 -0.131894 2.23826 -0.531782 -18.6879 9.75856 2.98845 1.79587 -4.89431 2.58053 -5.11402 
